<svg viewBox="0 0 96 96" xmlns="http://www.w3.org/2000/svg" xmlns:xlink="http://www.w3.org/1999/xlink" id="Icons_SmartPhone" overflow="hidden"><style>
.MsftOfcThm_MainDark1_Stroke_v2 {
 stroke:#000000; 
}
</style>
<path d="M66 80 30 80 30 16 66 16 66 80ZM44 8 52 8C53.1 8 54 8.9 54 10 54 11.1 53.1 12 52 12L44 12C42.9 12 42 11.1 42 10 42 8.9 42.9 8 44 8ZM70 4 26 4C24.9 4 24 4.9 24 6L24 90C24 91.1 24.9 92 26 92L70 92C71.1 92 72 91.1 72 90L72 6C72 4.9 71.1 4 70 4Z" class="MsftOfcThm_MainDark1_Stroke_v2" stroke="#000000" stroke-width="1.88235" fill="none"/></svg>